<?xml version="1.0" standalone="no"?>
<!DOCTYPE svg PUBLIC "-//W3C//DTD SVG 20010904//EN"
 "http://www.w3.org/TR/2001/REC-SVG-20010904/DTD/svg10.dtd">
<svg version="1.0" xmlns="http://www.w3.org/2000/svg"
 width="512.000000pt" height="512.000000pt" viewBox="0 0 512.000000 512.000000"
 preserveAspectRatio="xMidYMid meet">
<metadata>
Created by potrace 1.14, written by Peter Selinger 2001-2017
</metadata>
<g transform="translate(0.000000,512.000000) scale(0.100000,-0.100000)"
fill="#000000" stroke="none">
<path d="M0 2560 l0 -2560 2560 0 2560 0 0 2560 0 2560 -2560 0 -2560 0 0
-2560z m2009 1034 c27 -6 31 -10 31 -40 0 -27 -4 -34 -20 -34 -13 0 -20 -7
-20 -20 0 -15 -7 -20 -29 -20 -49 0 -91 -12 -91 -26 0 -8 9 -14 20 -14 13 0
20 -7 20 -20 0 -17 7 -20 40 -20 39 0 40 1 40 35 0 28 4 35 20 35 11 0 20 -7
20 -15 0 -8 9 -15 20 -15 11 0 20 7 20 15 0 8 9 15 20 15 15 0 20 7 20 25 0
22 4 25 38 24 20 -1 48 -5 62 -9 24 -8 24 -8 3 -9 -13 -1 -23 -5 -23 -10 0 -5
36 -12 80 -16 78 -7 103 -19 58 -28 -13 -2 -4 -5 20 -6 29 -1 42 -5 42 -15 0
-8 10 -17 23 -19 12 -2 -33 -5 -100 -6 -116 -1 -123 -2 -123 -21 0 -18 -7 -20
-80 -20 -73 0 -80 -2 -80 -20 0 -17 -7 -20 -40 -20 l-40 0 0 -145 c0 -138 1
-145 20 -145 13 0 20 -7 20 -20 0 -13 7 -20 20 -20 13 0 20 -7 20 -20 0 -13 7
-20 20 -20 17 0 20 -7 20 -40 0 -33 3 -40 20 -40 17 0 20 -7 20 -40 0 -33 3
-40 20 -40 17 0 20 -7 20 -40 0 -33 3 -40 20 -40 18 0 20 -7 20 -55 l0 -55
-60 0 c-57 0 -60 -1 -60 -25 0 -25 1 -25 80 -25 l80 0 0 -40 0 -40 -60 0 c-47
0 -60 -3 -60 -15 0 -11 12 -15 49 -15 76 0 111 -10 111 -31 0 -16 8 -19 60
-19 l60 0 0 -40 0 -40 80 0 c73 0 80 2 80 20 0 17 7 20 40 20 33 0 40 -3 40
-20 0 -17 -7 -20 -40 -20 -33 0 -40 -3 -40 -20 0 -19 -7 -20 -100 -20 l-100 0
0 -55 0 -55 -42 1 c-24 1 -33 4 -20 6 37 7 25 23 -18 23 -33 0 -40 3 -40 20 0
18 -7 20 -80 20 -72 0 -80 2 -80 19 0 21 -35 31 -111 31 -42 0 -49 3 -49 20 0
18 -7 20 -62 21 -35 1 -53 4 -40 6 17 3 22 11 22 34 0 22 5 29 20 29 15 0 20
7 20 25 0 25 1 25 80 25 l80 0 0 55 c0 48 -2 55 -20 55 -17 0 -20 7 -20 45 0
38 -3 45 -20 45 -17 0 -20 7 -20 40 0 33 -3 40 -20 40 -17 0 -20 7 -20 40 0
33 -3 40 -20 40 -13 0 -20 7 -20 20 0 13 -7 20 -20 20 -13 0 -20 7 -20 20 0
13 -7 20 -20 20 -13 0 -20 7 -20 20 0 13 -7 20 -20 20 -13 0 -20 7 -20 20 0
13 -7 20 -20 20 -13 0 -20 7 -20 20 0 17 -7 20 -40 20 -33 0 -40 3 -40 20 0
13 -7 20 -20 20 -13 0 -20 7 -20 20 0 13 -7 20 -20 20 -17 0 -20 7 -20 40 0
33 3 40 20 40 13 0 20 7 20 20 0 13 7 20 20 20 13 0 20 7 20 20 0 13 7 20 20
20 13 0 20 7 20 20 0 13 7 20 20 20 13 0 20 7 20 20 0 13 7 20 20 20 11 0 20
4 20 9 0 5 10 12 23 14 12 2 -1 5 -29 6 -82 2 -114 11 -114 32 0 13 8 19 23
20 l22 2 -22 4 c-13 2 -23 9 -23 14 0 5 -9 9 -20 9 -11 0 -20 -7 -20 -15 0
-13 -24 -15 -160 -15 -136 0 -160 2 -160 15 0 8 9 15 20 15 11 0 20 -4 20 -10
0 -5 9 -10 20 -10 11 0 20 7 20 15 0 8 9 15 20 15 13 0 20 7 20 20 0 13 7 20
20 20 11 0 20 7 20 15 0 10 10 15 29 15 48 0 91 12 91 25 0 9 34 15 120 20 90
5 120 11 120 21 0 18 145 31 209 18z m-1649 -94 c0 -13 -7 -20 -20 -20 -13 0
-20 7 -20 20 0 13 7 20 20 20 13 0 20 -7 20 -20z m2089 14 c27 -6 46 -34 22
-34 -5 0 -23 -3 -40 -6 -28 -6 -31 -4 -31 20 0 28 2 29 49 20z m151 -74 c0
-33 -3 -40 -20 -40 -13 0 -20 7 -20 20 0 13 -7 20 -20 20 -13 0 -20 7 -20 20
0 17 7 20 40 20 l40 0 0 -40z m0 -140 c0 -13 -7 -20 -20 -20 -13 0 -20 7 -20
20 0 13 7 20 20 20 13 0 20 -7 20 -20z m-1727 -77 c-7 -2 -19 -2 -25 0 -7 3
-2 5 12 5 14 0 19 -2 13 -5z m1807 -8 c0 -8 -9 -15 -20 -15 -11 0 -20 7 -20
15 0 8 9 15 20 15 11 0 20 -7 20 -15z m-2320 -35 c0 -13 -7 -20 -20 -20 -13 0
-20 7 -20 20 0 13 7 20 20 20 13 0 20 -7 20 -20z m569 14 c17 -4 31 -13 31
-20 0 -10 16 -14 60 -14 l60 0 0 -40 c0 -33 -3 -40 -20 -40 -15 0 -20 -7 -20
-25 0 -19 -6 -25 -22 -26 l-23 -2 23 -4 c44 -9 21 -23 -38 -23 -53 0 -60 2
-60 20 0 13 -7 20 -20 20 -13 0 -20 7 -20 20 0 13 -7 20 -20 20 -13 0 -20 7
-20 20 0 13 -7 20 -20 20 -13 0 -20 7 -20 20 0 13 7 20 20 20 13 0 20 7 20 20
0 22 28 26 89 14z m1791 -14 c0 -5 -9 -10 -20 -10 -11 0 -20 5 -20 10 0 6 9
10 20 10 11 0 20 -4 20 -10z m0 -40 c0 -13 -7 -20 -20 -20 -13 0 -20 7 -20 20
0 13 7 20 20 20 13 0 20 -7 20 -20z m40 -40 c0 -5 -9 -10 -20 -10 -11 0 -20 5
-20 10 0 6 9 10 20 10 11 0 20 -4 20 -10z m40 -65 c0 -38 3 -45 20 -45 18 0
20 -7 20 -55 0 -48 2 -55 20 -55 18 0 20 -7 20 -65 0 -58 -2 -65 -20 -65 -18
0 -20 7 -20 65 0 58 -2 65 -20 65 -17 0 -20 7 -20 40 0 33 -3 40 -20 40 -17 0
-20 7 -20 40 0 33 -3 40 -20 40 -13 0 -20 7 -20 20 0 17 7 20 40 20 l40 0 0
-45z m-2520 15 c0 -13 -7 -20 -20 -20 -13 0 -20 7 -20 20 0 13 7 20 20 20 13
0 20 -7 20 -20z m1200 5 c0 -8 -9 -15 -20 -15 -11 0 -20 7 -20 15 0 8 9 15 20
15 11 0 20 -7 20 -15z m-1047 -12 c-7 -2 -19 -2 -25 0 -7 3 -2 5 12 5 14 0 19
-2 13 -5z m-233 -28 c0 -11 11 -15 40 -15 36 0 40 -2 40 -25 0 -24 3 -25 60
-25 53 0 60 -2 60 -20 0 -18 7 -20 60 -20 53 0 60 -2 60 -20 0 -19 7 -20 260
-20 l260 0 0 -40 c0 -33 3 -40 20 -40 13 0 20 -7 20 -20 0 -13 7 -20 20 -20
13 0 20 -7 20 -20 0 -13 7 -20 20 -20 13 0 20 -7 20 -20 0 -22 -3 -23 -49 -14
-21 5 -31 12 -31 25 0 12 -7 19 -20 19 -11 0 -20 6 -20 14 0 9 -15 17 -40 21
-30 5 -40 11 -40 26 0 18 -9 19 -120 19 l-120 0 0 -45 c0 -38 3 -45 20 -45 13
0 20 -7 20 -20 0 -18 7 -20 80 -20 73 0 80 -2 80 -20 0 -17 7 -20 40 -20 27 0
40 -4 40 -14 0 -19 45 -26 171 -26 l109 0 0 -200 c0 -193 -1 -200 -20 -200
-13 0 -20 7 -20 20 0 18 -7 20 -60 20 -53 0 -60 2 -60 20 0 13 -7 20 -20 20
-19 0 -20 7 -20 105 l0 105 -80 0 c-75 0 -80 1 -80 21 0 21 -3 22 -61 15 -34
-3 -79 -6 -100 -6 -28 0 -39 -4 -39 -15 0 -8 9 -15 20 -15 13 0 20 -7 20 -20
0 -18 7 -20 60 -20 53 0 60 -2 60 -20 0 -13 7 -20 20 -20 17 0 20 -7 20 -45 0
-38 -3 -45 -20 -45 -13 0 -20 7 -20 20 0 13 -7 20 -20 20 -13 0 -20 7 -20 20
0 13 -7 20 -20 20 -13 0 -20 -7 -20 -20 0 -13 -7 -20 -20 -20 -17 0 -20 7 -20
45 0 38 -3 45 -20 45 -15 0 -20 -7 -20 -25 0 -18 -5 -25 -20 -25 -18 0 -20 7
-20 80 l0 80 -60 0 c-53 0 -60 2 -60 20 0 17 -7 20 -40 20 l-40 0 0 40 c0 33
3 40 20 40 13 0 20 7 20 20 0 13 7 20 20 20 13 0 20 7 20 20 0 13 7 20 20 20
15 0 20 7 20 25 0 18 -5 25 -20 25 -13 0 -20 -7 -20 -20 0 -13 -7 -20 -20 -20
-13 0 -20 -7 -20 -20 0 -13 -7 -20 -20 -20 -13 0 -20 -7 -20 -20 0 -13 -7 -20
-20 -20 -17 0 -20 -7 -20 -40 0 -33 -3 -40 -20 -40 -15 0 -20 -7 -20 -25 0
-18 -5 -25 -20 -25 -17 0 -20 7 -20 39 0 35 -3 39 -31 45 -17 3 -44 6 -60 6
-22 0 -29 5 -29 20 0 13 7 20 20 20 11 0 20 7 20 15 0 8 -9 15 -20 15 -11 0
-20 -7 -20 -15 0 -8 -9 -15 -20 -15 -13 0 -20 7 -20 20 0 17 -7 20 -40 20 -33
0 -40 3 -40 20 0 13 -7 20 -20 20 -13 0 -20 7 -20 20 0 13 -7 20 -20 20 -11 0
-20 7 -20 15 0 8 9 15 20 15 17 0 20 7 20 40 0 33 3 40 20 40 15 0 20 7 20 25
0 18 5 25 20 25 16 0 20 7 20 35 0 28 4 35 20 35 11 0 20 -7 20 -15z m73 -2
c-7 -2 -19 -2 -25 0 -7 3 -2 5 12 5 14 0 19 -2 13 -5z m1167 -38 c0 -18 -5
-25 -20 -25 -15 0 -20 7 -20 25 0 18 5 25 20 25 15 0 20 -7 20 -25z m0 -115
c0 -13 -7 -20 -20 -20 -13 0 -20 7 -20 20 0 13 7 20 20 20 13 0 20 -7 20 -20z
m200 0 c0 -13 7 -20 20 -20 17 0 20 -7 20 -40 0 -33 3 -40 20 -40 13 0 20 -7
20 -20 0 -18 -7 -20 -60 -20 -53 0 -60 2 -60 20 0 13 -7 20 -20 20 -13 0 -20
7 -20 20 0 13 -7 20 -20 20 -17 0 -20 7 -20 40 l0 40 60 0 c53 0 60 -2 60 -20z
m200 -125 c0 -18 -5 -25 -20 -25 -15 0 -20 7 -20 25 0 18 5 25 20 25 15 0 20
-7 20 -25z m1753 8 c-7 -2 -19 -2 -25 0 -7 3 -2 5 12 5 14 0 19 -2 13 -5z
m-704 -19 l31 -6 0 -98 0 -98 40 -7 c38 -6 40 -9 40 -41 0 -19 -4 -34 -9 -34
-5 0 -23 -3 -40 -6 -27 -6 -31 -4 -31 15 0 14 -6 21 -20 21 -19 0 -20 7 -20
124 0 121 -1 125 -22 129 -13 2 -18 5 -12 6 6 0 26 -2 43 -5z m746 -8 c36 -10
43 -15 25 -16 l-25 -2 25 -8 c21 -7 19 -8 -17 -9 -36 -1 -43 2 -43 18 0 12 -8
21 -22 24 -13 2 -16 5 -8 5 8 1 38 -5 65 -12z m-1795 -26 c0 -5 9 -10 20 -10
15 0 20 -7 20 -25 0 -18 -5 -25 -20 -25 -15 0 -20 7 -20 25 0 18 -5 25 -20 25
-11 0 -20 5 -20 10 0 6 9 10 20 10 11 0 20 -4 20 -10z m-87 -7 c-7 -2 -19 -2
-25 0 -7 3 -2 5 12 5 14 0 19 -2 13 -5z m-240 -20 c-7 -2 -19 -2 -25 0 -7 3
-2 5 12 5 14 0 19 -2 13 -5z m2247 -8 c0 -11 -11 -15 -40 -15 -29 0 -40 4 -40
15 0 11 11 15 40 15 29 0 40 -4 40 -15z m-2247 -12 c-7 -2 -19 -2 -25 0 -7 3
-2 5 12 5 14 0 19 -2 13 -5z m2327 -28 c0 -8 -9 -15 -20 -15 -11 0 -20 7 -20
15 0 8 9 15 20 15 11 0 20 -7 20 -15z m-1967 -12 c-7 -2 -19 -2 -25 0 -7 3 -2
5 12 5 14 0 19 -2 13 -5z m2047 -23 c0 -13 -7 -20 -20 -20 -13 0 -20 7 -20 20
0 13 7 20 20 20 13 0 20 -7 20 -20z m-2120 -5 c0 -8 -9 -15 -20 -15 -11 0 -20
7 -20 15 0 8 9 15 20 15 11 0 20 -7 20 -15z m920 -45 c0 -13 -7 -20 -20 -20
-13 0 -20 7 -20 20 0 13 7 20 20 20 13 0 20 -7 20 -20z m320 5 c0 -8 -9 -15
-20 -15 -11 0 -20 7 -20 15 0 8 9 15 20 15 11 0 20 -7 20 -15z m-440 -35 c0
-13 -7 -20 -20 -20 -13 0 -20 7 -20 20 0 13 7 20 20 20 13 0 20 -7 20 -20z
m-880 -85 c0 -12 -13 -15 -62 -14 -35 1 -52 4 -38 7 l25 5 -25 8 c-18 5 -7 7
38 8 49 1 62 -2 62 -14z m80 -40 c0 -8 -9 -15 -20 -15 -11 0 -20 7 -20 15 0 8
9 15 20 15 11 0 20 -7 20 -15z m960 -5 c0 -13 -7 -20 -20 -20 -13 0 -20 7 -20
20 0 13 7 20 20 20 13 0 20 -7 20 -20z m-1127 -107 c-7 -2 -19 -2 -25 0 -7 3
-2 5 12 5 14 0 19 -2 13 -5z m2027 -1 l-25 -5 25 -8 c21 -6 18 -7 -17 -8 -32
-1 -43 3 -43 14 0 11 11 15 43 14 29 -1 35 -3 17 -7z m100 -47 c0 -8 9 -15 20
-15 15 0 20 -7 20 -25 0 -18 -5 -25 -20 -25 -11 0 -20 -7 -20 -15 0 -8 -9 -15
-20 -15 -11 0 -20 7 -20 15 0 8 9 15 20 15 15 0 20 7 20 25 0 23 -4 25 -40 25
-29 0 -40 4 -40 15 0 11 11 15 40 15 29 0 40 -4 40 -15z m-1600 -5 c0 -5 -9
-10 -20 -10 -11 0 -20 5 -20 10 0 6 9 10 20 10 11 0 20 -4 20 -10z m-320 -80
c0 -13 -7 -20 -20 -20 -13 0 -20 7 -20 20 0 13 7 20 20 20 13 0 20 -7 20 -20z
m-7 -47 c-7 -2 -19 -2 -25 0 -7 3 -2 5 12 5 14 0 19 -2 13 -5z m-360 -20 c-7
-2 -19 -2 -25 0 -7 3 -2 5 12 5 14 0 19 -2 13 -5z m327 -13 c0 -13 -7 -20 -20
-20 -13 0 -20 7 -20 20 0 13 7 20 20 20 13 0 20 -7 20 -20z m640 -40 c0 -13
-7 -20 -20 -20 -13 0 -20 7 -20 20 0 13 7 20 20 20 13 0 20 -7 20 -20z m-1087
-27 c-7 -2 -19 -2 -25 0 -7 3 -2 5 12 5 14 0 19 -2 13 -5z m727 -33 c0 -33 -3
-40 -20 -40 -17 0 -20 7 -20 40 0 33 3 40 20 40 17 0 20 -7 20 -40z m2280 -15
c0 -8 -9 -15 -20 -15 -11 0 -20 7 -20 15 0 8 9 15 20 15 11 0 20 -7 20 -15z
m-3000 -35 c0 -13 7 -20 20 -20 15 0 20 -7 20 -25 0 -18 -5 -25 -20 -25 -13 0
-20 7 -20 20 0 17 -7 20 -40 20 -36 0 -40 3 -40 25 0 23 4 25 40 25 33 0 40
-3 40 -20z m120 -85 c0 -18 -5 -25 -20 -25 -15 0 -20 7 -20 25 0 18 5 25 20
25 15 0 20 -7 20 -25z m633 8 c-7 -2 -19 -2 -25 0 -7 3 -2 5 12 5 14 0 19 -2
13 -5z m-553 -53 c0 -13 -7 -20 -20 -20 -13 0 -20 7 -20 20 0 13 7 20 20 20
13 0 20 -7 20 -20z m100 -20 c24 -8 24 -8 3 -9 -13 -1 -23 -7 -23 -16 0 -8 -9
-15 -20 -15 -15 0 -20 7 -20 25 0 27 13 30 60 15z m460 -15 c0 -8 -9 -15 -20
-15 -11 0 -20 7 -20 15 0 8 9 15 20 15 11 0 20 -7 20 -15z m-400 -45 c0 -13 7
-20 20 -20 11 0 20 -7 20 -15 0 -8 -9 -15 -20 -15 -11 0 -20 7 -20 15 0 8 -9
15 -20 15 -13 0 -20 7 -20 20 0 13 7 20 20 20 13 0 20 -7 20 -20z m320 5 c0
-8 -9 -15 -20 -15 -18 0 -20 -7 -20 -85 0 -78 -2 -85 -20 -85 -16 0 -20 7 -20
35 0 28 -4 35 -20 35 -11 0 -20 -7 -20 -15 0 -8 -9 -15 -20 -15 -13 0 -20 7
-20 20 0 17 7 20 40 20 l40 0 0 60 0 60 40 0 c29 0 40 -4 40 -15z m840 0 c0
-8 -9 -15 -20 -15 -11 0 -20 7 -20 15 0 8 9 15 20 15 11 0 20 -7 20 -15z
m-1040 -85 c0 -13 -7 -20 -20 -20 -13 0 -20 7 -20 20 0 13 7 20 20 20 13 0 20
-7 20 -20z m360 -155 c0 -98 -1 -105 -20 -105 -17 0 -20 7 -20 40 0 33 -3 40
-20 40 -15 0 -20 7 -20 25 0 18 5 25 20 25 11 0 20 7 20 15 0 8 -9 15 -20 15
-29 0 -27 37 3 43 59 11 57 16 57 -98z m80 35 c0 -17 7 -20 40 -20 39 0 40 -1
40 -35 0 -19 -4 -35 -9 -35 -5 0 -23 -3 -40 -6 -27 -6 -31 -4 -31 15 0 14 -6
21 -20 21 -17 0 -20 7 -20 40 0 33 3 40 20 40 13 0 20 -7 20 -20z m160 -75 c0
-8 -9 -15 -20 -15 -11 0 -20 7 -20 15 0 8 9 15 20 15 11 0 20 -7 20 -15z m160
-80 c0 -8 -9 -15 -20 -15 -11 0 -20 7 -20 15 0 8 9 15 20 15 11 0 20 -7 20
-15z m-360 -120 c0 -18 -5 -25 -20 -25 -15 0 -20 7 -20 25 0 18 5 25 20 25 15
0 20 -7 20 -25z m600 0 c0 -8 -9 -15 -20 -15 -11 0 -20 7 -20 15 0 8 9 15 20
15 11 0 20 -7 20 -15z m80 -40 c0 -8 -9 -15 -20 -15 -11 0 -20 7 -20 15 0 8 9
15 20 15 11 0 20 -7 20 -15z m120 -85 c0 -13 -7 -20 -20 -20 -13 0 -20 7 -20
20 0 13 7 20 20 20 13 0 20 -7 20 -20z m120 -40 c0 -17 -7 -20 -40 -20 -33 0
-40 3 -40 20 0 17 7 20 40 20 33 0 40 -3 40 -20z m-40 -75 c0 -8 -9 -15 -20
-15 -11 0 -20 7 -20 15 0 8 9 15 20 15 11 0 20 -7 20 -15z"/>
<path d="M1768 3403 c6 -2 18 -2 25 0 6 3 1 5 -13 5 -14 0 -19 -2 -12 -5z"/>
<path d="M1920 2855 c0 -22 4 -25 40 -25 36 0 40 3 40 25 0 23 -4 25 -40 25
-36 0 -40 -2 -40 -25z"/>
<path d="M2008 2383 c6 -2 18 -2 25 0 6 3 1 5 -13 5 -14 0 -19 -2 -12 -5z"/>
<path d="M1960 2300 c0 -5 9 -10 20 -10 11 0 20 5 20 10 0 6 -9 10 -20 10 -11
0 -20 -4 -20 -10z"/>
<path d="M200 2935 c0 -18 5 -25 20 -25 15 0 20 7 20 25 0 18 -5 25 -20 25
-15 0 -20 -7 -20 -25z"/>
<path d="M360 2855 c0 -8 9 -15 20 -15 11 0 20 7 20 15 0 8 -9 15 -20 15 -11
0 -20 -7 -20 -15z"/>
<path d="M800 2820 c0 -5 9 -10 20 -10 11 0 20 5 20 10 0 6 -9 10 -20 10 -11
0 -20 -4 -20 -10z"/>
<path d="M1120 2435 l0 -85 60 0 60 0 0 45 c0 38 -3 45 -20 45 -17 0 -20 7
-20 40 l0 40 -40 0 -40 0 0 -85z"/>
</g>
</svg>
